<svg preserveAspectRatio="none" width="100%" height="100%" overflow="visible" style="display: block;" viewBox="0 0 60 54" fill="none" xmlns="http://www.w3.org/2000/svg">
<path id="Vector" d="M0 19.5V3C0 2.20435 0.31607 1.44129 0.87868 0.87868C1.44129 0.31607 2.20435 0 3 0H57C57.7956 0 58.5587 0.31607 59.1213 0.87868C59.6839 1.44129 60 2.20435 60 3V19.5C58.0109 19.5 56.1032 20.2902 54.6967 21.6967C53.2902 23.1032 52.5 25.0109 52.5 27C52.5 28.9891 53.2902 30.8968 54.6967 32.3033C56.1032 33.7098 58.0109 34.5 60 34.5V51C60 51.7956 59.6839 52.5587 59.1213 53.1213C58.5587 53.6839 57.7956 54 57 54H3C2.20435 54 1.44129 53.6839 0.87868 53.1213C0.31607 52.5587 0 51.7956 0 51V34.5C1.98912 34.5 3.89678 33.7098 5.3033 32.3033C6.70982 30.8968 7.5 28.9891 7.5 27C7.5 25.0109 6.70982 23.1032 5.3033 21.6967C3.89678 20.2902 1.98912 19.5 0 19.5V19.5ZM6 14.904C8.25363 16.0209 10.1504 17.7451 11.4765 19.8824C12.8026 22.0196 13.5053 24.4848 13.5053 27C13.5053 29.5152 12.8026 31.9804 11.4765 34.1176C10.1504 36.2549 8.25363 37.9791 6 39.096V48H54V39.096C51.7464 37.9791 49.8496 36.2549 48.5235 34.1176C47.1974 31.9804 46.4947 29.5152 46.4947 27C46.4947 24.4848 47.1974 22.0196 48.5235 19.8824C49.8496 17.7451 51.7464 16.0209 54 14.904V6H6V14.904ZM21 18H39V24H21V18ZM21 30H39V36H21V30Z" fill="var(--fill-0, #C23513)"/>
</svg>
