<svg preserveAspectRatio="none" width="100%" height="100%" overflow="visible" style="display: block;" viewBox="0 0 47.7 53" fill="none" xmlns="http://www.w3.org/2000/svg">
<path id="Vector" d="M9.275 0H38.425C38.8364 0 39.2421 0.0957842 39.6101 0.279768C39.9781 0.463751 40.2982 0.730881 40.545 1.06L47.7 10.6V50.35C47.7 51.0528 47.4208 51.7269 46.9238 52.2238C46.4269 52.7208 45.7528 53 45.05 53H2.65C1.94718 53 1.27314 52.7208 0.776167 52.2238C0.279195 51.7269 0 51.0528 0 50.35V10.6L7.155 1.06C7.40184 0.730881 7.72192 0.463751 8.08988 0.279768C8.45785 0.0957842 8.8636 0 9.275 0ZM42.4 15.9H5.3V47.7H42.4V15.9ZM41.075 10.6L37.1 5.3H10.6L6.625 10.6H41.075ZM15.9 21.2V26.5C15.9 28.6085 16.7376 30.6306 18.2285 32.1215C19.7194 33.6124 21.7415 34.45 23.85 34.45C25.9585 34.45 27.9806 33.6124 29.4715 32.1215C30.9624 30.6306 31.8 28.6085 31.8 26.5V21.2H37.1V26.5C37.1 30.0141 35.704 33.3843 33.2192 35.8692C30.7343 38.354 27.3641 39.75 23.85 39.75C20.3359 39.75 16.9657 38.354 14.4808 35.8692C11.996 33.3843 10.6 30.0141 10.6 26.5V21.2H15.9Z" fill="var(--fill-0, #C23513)"/>
</svg>
